<svg width="20" height="19" viewBox="0 0 20 19" fill="none" xmlns="http://www.w3.org/2000/svg">
<path d="M8.55 17.05L10 18.35L11.45 17.05C13.1333 15.5333 14.525 14.225 15.625 13.125C16.725 12.025 17.6 11.0375 18.25 10.1625C18.9 9.2875 19.3542 8.48333 19.6125 7.75C19.8708 7.01667 20 6.26667 20 5.5C20 3.93333 19.475 2.625 18.425 1.575C17.375 0.525 16.0667 0 14.5 0C13.6333 0 12.8083 0.183333 12.025 0.55C11.2417 0.916667 10.5667 1.43333 10 2.1C9.43333 1.43333 8.75833 0.916667 7.975 0.55C7.19167 0.183333 6.36667 0 5.5 0C3.93333 0 2.625 0.525 1.575 1.575C0.525 2.625 0 3.93333 0 5.5C0 6.26667 0.129167 7.01667 0.3875 7.75C0.645833 8.48333 1.1 9.2875 1.75 10.1625C2.4 11.0375 3.275 12.025 4.375 13.125C5.475 14.225 6.86667 15.5333 8.55 17.05Z" fill="#A3A6A9"/>
</svg>
