<svg width="249" height="85" viewBox="0 0 249 85" fill="none" xmlns="http://www.w3.org/2000/svg">
<path d="M9.21348 67C7.52809 67 6.68539 66.1011 6.68539 64.3034V44.4157H3.98876C2.22846 44.4157 1.34831 43.6854 1.34831 42.2247C1.34831 40.764 2.00375 40.0337 3.31461 40.0337H6.68539V34.9775C6.68539 32.7678 7.0412 31.0262 7.75281 29.7528C8.46442 28.4794 9.45693 27.5805 10.7303 27.0562C12.0037 26.5318 13.4831 26.2697 15.1685 26.2697C16.4794 26.2697 17.5468 26.4195 18.3708 26.7191C19.2322 26.9813 19.6629 27.6367 19.6629 28.6854C19.6255 29.3221 19.4382 29.8464 19.1011 30.2584C18.764 30.6704 18.1835 30.8577 17.3596 30.8202C17.0974 30.7828 16.8165 30.764 16.5169 30.764C16.2547 30.7266 15.9925 30.7079 15.7303 30.7079C14.4944 30.7079 13.5019 31.1011 12.7528 31.8876C12.0412 32.6742 11.6854 33.8727 11.6854 35.4831V40.0337H16.9663C18.764 40.0337 19.6629 40.764 19.6629 42.2247C19.6629 43.6854 18.7828 44.4157 17.0225 44.4157H11.6854V64.3034C11.6854 66.1011 10.8614 67 9.21348 67ZM33.384 67.618C30.5375 67.618 28.2341 66.7191 26.4738 64.9213C24.7135 63.0861 23.8334 60.4457 23.8334 57V42.6742C23.8334 40.9139 24.6574 40.0337 26.3053 40.0337C27.9907 40.0337 28.8334 40.9139 28.8334 42.6742V55.9888C28.8334 58.3109 29.3577 60.0712 30.4064 61.2697C31.4551 62.4307 32.8034 63.0112 34.4514 63.0112C36.3615 63.0112 37.9158 62.3933 39.1143 61.1573C40.3503 59.8839 40.9682 58.1798 40.9682 56.0449V42.6742C40.9682 40.9139 41.8109 40.0337 43.4963 40.0337C45.1443 40.0337 45.9682 40.9139 45.9682 42.6742V64.3034C45.9682 66.1011 45.2192 67 43.721 67C42.2229 67 41.4177 66.5318 41.3053 65.5955L41.1929 63.5169C40.4064 64.6404 39.339 65.6142 37.9907 66.4382C36.6798 67.2247 35.1443 67.618 33.384 67.618ZM56.1078 67C54.4224 67 53.5797 66.1011 53.5797 64.3034V42.6742C53.5797 40.9139 54.3475 40.0337 55.8831 40.0337C57.4561 40.0337 58.2614 40.4831 58.2988 41.382L58.4112 43.5169C59.1977 42.3933 60.2464 41.4195 61.5572 40.5955C62.9056 39.7715 64.4411 39.3595 66.164 39.3595C69.0104 39.3595 71.3138 40.2772 73.0741 42.1124C74.8718 43.9101 75.7707 46.5318 75.7707 49.9775V64.3034C75.7707 66.1011 74.928 67 73.2426 67C71.5947 67 70.7707 66.1011 70.7707 64.3034V51.0449C70.7707 48.6854 70.2464 46.9251 69.1977 45.764C68.149 44.5655 66.782 43.9663 65.0966 43.9663C63.1865 43.9663 61.6321 44.603 60.4336 45.8764C59.2351 47.1124 58.6359 48.779 58.6359 50.8764V64.3034C58.6359 66.1011 57.7932 67 56.1078 67ZM94.7187 67.618C92.2468 67.618 90.037 67.0562 88.0895 65.9326C86.1793 64.7715 84.6625 63.1423 83.5389 61.0449C82.4528 58.9101 81.9097 56.4007 81.9097 53.5169C81.9097 50.5955 82.4528 48.0861 83.5389 45.9888C84.6625 43.8539 86.1793 42.2247 88.0895 41.1011C90.037 39.9401 92.2468 39.3595 94.7187 39.3595C96.3666 39.3595 97.8647 39.7154 99.2131 40.427C100.599 41.1386 101.76 42.1498 102.696 43.4607V29.3595C102.696 27.5992 103.52 26.7191 105.168 26.7191C106.854 26.7191 107.696 27.5992 107.696 29.3595V64.3034C107.696 66.1011 106.966 67 105.505 67C104.007 67 103.239 66.588 103.202 65.764L103.089 63.1236C102.153 64.5094 100.955 65.6142 99.4939 66.4382C98.0707 67.2247 96.479 67.618 94.7187 67.618ZM94.8872 63.0112C97.1719 63.0112 99.0445 62.1685 100.505 60.4831C102.003 58.7978 102.752 56.4757 102.752 53.5169C102.752 50.5206 102.003 48.1798 100.505 46.4944C99.0445 44.809 97.1719 43.9663 94.8872 43.9663C92.6026 43.9663 90.7112 44.809 89.2131 46.4944C87.7149 48.1798 86.9659 50.5206 86.9659 53.5169C86.9659 56.4757 87.7149 58.7978 89.2131 60.4831C90.7112 62.1685 92.6026 63.0112 94.8872 63.0112ZM200.661 67.618C197.815 67.618 195.512 66.7191 193.751 64.9213C191.991 63.0861 191.111 60.4457 191.111 57V42.6742C191.111 40.9139 191.935 40.0337 193.583 40.0337C195.268 40.0337 196.111 40.9139 196.111 42.6742V55.9888C196.111 58.3109 196.635 60.0712 197.684 61.2697C198.733 62.4307 200.081 63.0112 201.729 63.0112C203.639 63.0112 205.193 62.3933 206.392 61.1573C207.628 59.8839 208.246 58.1798 208.246 56.0449V42.6742C208.246 40.9139 209.088 40.0337 210.774 40.0337C212.422 40.0337 213.246 40.9139 213.246 42.6742V64.3034C213.246 66.1011 212.497 67 210.999 67C209.5 67 208.695 66.5318 208.583 65.5955L208.47 63.5169C207.684 64.6404 206.617 65.6142 205.268 66.4382C203.957 67.2247 202.422 67.618 200.661 67.618ZM223.385 78.3483C221.7 78.3483 220.857 77.4494 220.857 75.6517V42.6742C220.857 40.9139 221.606 40.0337 223.104 40.0337C224.603 40.0337 225.37 40.427 225.408 41.2135L225.52 43.8539C226.494 42.4307 227.692 41.3258 229.116 40.5393C230.539 39.7528 232.131 39.3595 233.891 39.3595C236.363 39.3595 238.554 39.9401 240.464 41.1011C242.374 42.2247 243.872 43.8539 244.958 45.9888C246.082 48.0861 246.644 50.5768 246.644 53.4607C246.644 56.3446 246.082 58.8539 244.958 60.9888C243.872 63.1236 242.374 64.7715 240.464 65.9326C238.554 67.0562 236.363 67.618 233.891 67.618C232.206 67.618 230.689 67.2622 229.34 66.5506C227.992 65.8015 226.85 64.7903 225.913 63.5169V75.6517C225.913 77.4494 225.071 78.3483 223.385 78.3483ZM233.722 63.0112C236.007 63.0112 237.898 62.1685 239.397 60.4831C240.895 58.7603 241.644 56.4195 241.644 53.4607C241.644 50.5019 240.895 48.1798 239.397 46.4944C237.898 44.809 236.007 43.9663 233.722 43.9663C231.438 43.9663 229.546 44.809 228.048 46.4944C226.588 48.1798 225.857 50.5019 225.857 53.4607C225.857 56.4195 226.588 58.7603 228.048 60.4831C229.546 62.1685 231.438 63.0112 233.722 63.0112Z" fill="#003D66"/>
<path d="M118.729 67C116.557 67 115.471 65.8951 115.471 63.6854V30.9888C115.471 29.7154 115.789 28.8539 116.426 28.4045C117.1 27.9176 118.074 27.6742 119.347 27.6742C121.07 27.6742 122.381 28.4232 123.28 29.9213L133.223 46.5506L143.055 29.9775C143.579 29.0412 144.178 28.4232 144.853 28.1236C145.564 27.824 146.482 27.6742 147.605 27.6742C149.815 27.6742 150.92 28.779 150.92 30.9888V63.6854C150.92 65.8951 149.815 67 147.605 67C145.396 67 144.291 65.8951 144.291 63.6854V38.9663L136.369 52.6742C135.583 54.2097 134.515 54.9775 133.167 54.9775C131.819 54.9775 130.751 54.2097 129.965 52.6742L121.987 38.9663V63.6854C121.987 65.8951 120.901 67 118.729 67ZM162.182 67C159.972 67 158.867 65.8951 158.867 63.6854V30.9888C158.867 28.779 159.972 27.6742 162.182 27.6742H181.845C184.054 27.6742 185.159 28.6854 185.159 30.7079C185.159 32.6929 184.054 33.6854 181.845 33.6854H165.328V43.9101H180.103C182.313 43.9101 183.418 44.9213 183.418 46.9438C183.418 48.9663 182.313 49.9775 180.103 49.9775H165.328V60.9888H182.463C184.672 60.9888 185.777 61.9813 185.777 63.9663C185.777 65.9888 184.672 67 182.463 67H162.182Z" fill="#0098FF"/>
</svg>
